<svg xmlns="http://www.w3.org/2000/svg" width="1000" height="1000" version="1"><path class="fill" d="M195.88 .156c-107.72 0 -195.9 88.2 -195.9 195.88l0 607.851c0 107.7 88.2 195.8 195.9 195.849l607.851 0c107.72 0 195.8 -88.1 195.8 -195.849l0 -607.851c0 -107.7 -88.1 -195.9 -195.8 -195.88l-607.851 0zm338.012 186.777c94.026 7.6 148.6 68.3 155.1 145.9 5 40 3.6 69.6 -2.1 91.4 53.6 1.8 116.4 25.8 120.4 113.098l0 85.911c-5.561 75 -32.3 167.7 -169.2 187.3 -30.8 4.4 -65.5 1.5 -110.3 1.2 -45.1 -1.2 -84.5 -1 -118.9 -0.3 -138.9 2.5 -215.5 -58.5 -216.2 -189.3 -1.1 -44.5 0.7 -92.7 0.5 -152.6 -0.6 -37.9 -0.8 -77.5 0.1 -114.4 0.3 -7.2 -0.7 -15.1 1.2 -22.8 6 -84.3 73.7 -133.7 152.7 -144.665l186.745 -.814zm-156.148 117.259c-80.036 13.1 -84 104.4 0 115.726l151.924 0c80.036 -13.1 84 -104.4 0 -115.726l-151.924 0zm-34.508 252.82c-82.395 12.8 -83.6 116.5 2.9 127.271l279.1 1.001c81.695 -12.7 81.5 -116.3 -2.9 -127.302l-279.1 -.97z"/></svg>